{"title":"Telarc Sampler","uid":4371531,"size":90866261,"categoryP":"audio","categoryS":"flac","magnet":"?xt=urn:btih:ae718fa1c8e1222730ae37aba9a0e1e6ff9b344d&amp;dn=Telarc+Sampler&amp;tr=udp%3A%2F%2Ftracker.openbittorrent.com%3A80&amp;tr=udp%3A%2F%2Fopen.demonii.com%3A1337&amp;tr=udp%3A%2F%2Ftracker.coppersurfer.tk%3A6969&amp;tr=udp%3A%2F%2Fexodus.desync.com%3A6969","seeders":1,"leechers":0,"uploader":"tubeguy","files":6,"time":1220193882,"description":"Audio CD3 Sampler, The\nVarious Artists\n\nEpic Records / GRP / Telarc (US) / 198 / CSIG 000173\n3&quot; CD / 3 inch CD single - CD3 Single sent in a plain white envelope by Audio magazine\n\nProducer:\nVarious\nTRACKLISTING:\n\n1. Paradise 3:38 Sade\n2. Early A.M. Attiutude 4:59 Dave Grusin / Lee Ritenour\n3. I Got Plenty O&amp;#039; Nothin 3:11 Empire Brass Quintet\n4. In The Mood 4:23 Big Band Hit Parade\n\nNOTES ON THIS 3&quot; CD SINGLE:\n\nThe now defunct Audio Magazine featured a mail-in coupon in one of their late 1980s issue for this special CD3 sampler, which arrived in a plain white envelope without a sleeve or jewel case.\n\nExact Audio Copy V0.99 prebeta 3 from 28. July 2007\n\nEAC extraction logfile from 31. August 2008, 7:33\n\nVarious / Epic/Telarc/GRP Audio Sampler\n\nUsed drive  : TEAC    DW-224E-A   Adapter: 1  ID: 0\n\nRead mode               : Secure\nUtilize accurate stream : Yes\nDefeat audio cache      : No\nMake use of C2 pointers : Yes\n\nCombined read/write offset correction       : 0\nOverread into Lead-In and Lead-Out          : No\nFill up missing offset samples with silence : Yes\nDelete leading and trailing silent blocks   : No\nNull samples used in CRC calculations       : No\nUsed interface                              : Native Win32 interface for Win NT &amp; 2000\nGap handling                                : Not detected, thus appended to previous track\n\nUsed output format              : User Defined Encoder\nSelected bitrate                : 1024 kBit/s\nQuality                         : High\nAdd ID3 tag                     : Yes\nCommand line compressor         : C:Program FilesExact Audio CopyFLACFLAC.EXE\nAdditional command line options : -6 -V -T &quot;ARTIST=%a&quot; -T &quot;TITLE=%t&quot; -T &quot;ALBUM=%g&quot; -T &quot;DATE=%y&quot; -T &quot;TRACKNUMBER=%n&quot; -T &quot;GENRE=%m&quot; -T &quot;COMMENT=%e&quot; %s -o %d\n\n\nTOC of the extracted CD\n\n     Track |   Start  |  Length  | Start sector | End sector \n    ---------------------------------------------------------\n        1  |  0:00.00 |  3:38.70 |         0    |    16419   \n        2  |  3:38.70 |  4:59.70 |     16420    |    38914   \n        3  |  8:38.65 |  3:11.27 |     38915    |    53266   \n        4  | 11:50.17 |  4:23.60 |     53267    |    73051   \n\n\nTrack  1\n\n     Filename C:Documents and SettingsMikeMy DocumentsMy MusicTelarc SamplerSade- Paradise.wav\n\n     Peak level 79.9 %\n     Track quality 100.0 %\n     Copy CRC 341B9835\n     Copy OK\n\nTrack  2\n\n     Filename C:Documents and SettingsMikeMy DocumentsMy MusicTelarc SamplerLee Ritenour- Early A.M. Attiutude.wav\n\n     Peak level 92.9 %\n     Track quality 99.9 %\n     Copy CRC 19313E91\n     Copy OK\n\nTrack  3\n\n     Filename C:Documents and SettingsMikeMy DocumentsMy MusicTelarc SamplerEmpire Brass Quintet- I&amp;#039;ve Got Plenty Of Nothin&amp;#039;.wav\n\n     Peak level 100.0 %\n     Track quality 100.0 %\n     Copy CRC 60968E6A\n     Copy OK\n\nTrack  4\n\n     Filename C:Documents and SettingsMikeMy DocumentsMy MusicTelarc SamplerBig Band Hit Parade- In The Mood.wav\n\n     Peak level 97.3 %\n     Track quality 100.0 %\n     Copy CRC F2AEB915\n     Copy OK\n\nNo errors occurred\n\nEnd of status report\n","torrent":{"xt":"urn:btih:ae718fa1c8e1222730ae37aba9a0e1e6ff9b344d","amp;dn":"Telarc+Sampler","amp;tr":["udp%3A%2F%2Ftracker.openbittorrent.com%3A80","udp%3A%2F%2Fopen.demonii.com%3A1337","udp%3A%2F%2Ftracker.coppersurfer.tk%3A6969","udp%3A%2F%2Fexodus.desync.com%3A6969"],"infoHash":"ae718fa1c8e1222730ae37aba9a0e1e6ff9b344d","infoHashBuffer":{"type":"Buffer","data":[174,113,143,161,200,225,34,39,48,174,55,171,169,160,225,230,255,155,52,77]},"announce":[],"urlList":[]}}